<mxfile host="app.diagrams.net" modified="2023-12-26T11:18:47.215Z" agent="Mozilla/5.0 (Macintosh; Intel Mac OS X 10_15_7) AppleWebKit/537.36 (KHTML, like Gecko) Chrome/120.0.0.0 Safari/537.36" version="22.1.11" etag="b7qZbD-qiTKSPygenPHA" type="github">
  <diagram name="第 1 页" id="s8fC6JO_HdefF8UsmI9e">
    <mxGraphModel>
      <root>
        <mxCell id="0" />
        <mxCell id="1" parent="0" />
      </root>
    </mxGraphModel>
  </diagram>
</mxfile>
